<svg xmlns="http://www.w3.org/2000/svg" viewBox="0 0 1200 900" role="img" aria-labelledby="title desc">
  <title id="title">Auditoría de liquidaciones médicas</title>
  <desc id="desc">Documentos, gráficos y controles de auditoría representados en tonos azul y turquesa.</desc>
  <defs>
    <linearGradient id="bg" x1="0" y1="0" x2="1" y2="1"><stop stop-color="#09263b"/><stop offset="1" stop-color="#0c7b80"/></linearGradient>
    <linearGradient id="card" x1="0" y1="0" x2="1" y2="1"><stop stop-color="#fff"/><stop offset="1" stop-color="#e9f6f7"/></linearGradient>
    <filter id="shadow"><feDropShadow dx="0" dy="20" stdDeviation="22" flood-color="#061b2b" flood-opacity=".35"/></filter>
  </defs>
  <rect width="1200" height="900" fill="url(#bg)"/>
  <circle cx="1080" cy="100" r="260" fill="#2ec9c5" opacity=".14"/><circle cx="80" cy="830" r="310" fill="#fff" opacity=".06"/>
  <g filter="url(#shadow)" transform="translate(250 110)">
    <rect width="700" height="680" rx="44" fill="url(#card)"/>
    <rect x="70" y="72" width="280" height="30" rx="15" fill="#1b3a50"/><rect x="70" y="124" width="440" height="18" rx="9" fill="#bddadd"/>
    <g transform="translate(70 210)">
      <rect width="360" height="300" rx="24" fill="#f4f8fb"/>
      <path d="M48 248V176h48v72zm78 0V116h48v132zm78 0V72h48v176zm78 0V140h48v108z" fill="#0c7b80"/>
      <path d="M48 86c86 22 148-50 270-42" fill="none" stroke="#2ec9c5" stroke-width="14" stroke-linecap="round"/>
    </g>
    <g transform="translate(485 220)">
      <circle cx="80" cy="80" r="78" fill="#2ec9c5" opacity=".18"/><path d="m40 82 25 25 56-62" fill="none" stroke="#0c7b80" stroke-width="18" stroke-linecap="round" stroke-linejoin="round"/>
      <rect x="0" y="196" width="150" height="18" rx="9" fill="#bddadd"/><rect x="0" y="236" width="112" height="18" rx="9" fill="#bddadd"/>
    </g>
    <rect x="70" y="570" width="560" height="22" rx="11" fill="#d8e8ee"/><rect x="70" y="614" width="390" height="22" rx="11" fill="#d8e8ee"/>
  </g>
</svg>
